<?xml version="1.0" encoding="utf-8"?>
<!-- Generator: Adobe Illustrator 27.0.0, SVG Export Plug-In . SVG Version: 6.00 Build 0)  -->
<svg version="1.1" id="Layer_1" xmlns="http://www.w3.org/2000/svg" xmlns:xlink="http://www.w3.org/1999/xlink" x="0px" y="0px"
	 viewBox="0 0 216 51" style="enable-background:new 0 0 216 51;" xml:space="preserve">
<style type="text/css">
	.st0{fill:#FFFFFF;}
	.st1{fill:#FFD966;}
	.st2{fill:#3A97DE;}
</style>
<g>
	<polygon class="st1" points="22.2,3.8 15.6,7.7 22.2,11.5 28.9,15.4 28.9,7.7 28.9,0 	"/>
	<polygon class="st1" points="14.4,9 7.7,12.9 1.1,16.7 7.7,20.6 14.4,24.4 21.1,20.6 27.7,16.7 21.1,12.9 	"/>
	<polygon class="st2" points="6.5,46.7 13.2,42.9 6.5,39 -0.1,35.2 -0.1,42.9 -0.1,50.6 	"/>
	<polygon class="st2" points="14.4,41.6 21.1,37.7 27.7,33.9 21.1,30 14.4,26.2 7.7,30 1.1,33.9 7.7,37.7 	"/>
	<g>
		<path class="st1" d="M32.5,33.1c-1-0.4-1.8-1.1-2.4-1.9c-0.6-0.8-0.9-1.7-1-2.7H32c0.1,0.8,0.5,1.5,1.2,2.1
			c0.7,0.5,1.6,0.8,2.8,0.8c1.1,0,1.9-0.2,2.5-0.7c0.6-0.5,0.9-1.1,0.9-1.8c0-0.7-0.3-1.3-1-1.7c-0.7-0.4-1.7-0.7-3.1-1.1
			c-1.3-0.3-2.3-0.7-3.1-1c-0.8-0.3-1.5-0.8-2-1.5c-0.6-0.7-0.9-1.6-0.9-2.6c0-0.9,0.3-1.7,0.8-2.4c0.5-0.7,1.2-1.3,2.2-1.7
			c0.9-0.4,2-0.6,3.3-0.6c1.9,0,3.4,0.5,4.6,1.4c1.2,0.9,1.8,2.3,1.9,3.9h-2.8c-0.1-0.9-0.4-1.6-1.1-2.1c-0.7-0.5-1.5-0.8-2.6-0.8
			c-1,0-1.8,0.2-2.4,0.7c-0.6,0.4-0.9,1-0.9,1.7c0,0.6,0.2,1,0.5,1.4c0.4,0.4,0.8,0.7,1.4,0.9c0.5,0.2,1.3,0.5,2.3,0.7
			c1.2,0.3,2.2,0.7,3,1c0.8,0.3,1.4,0.8,2,1.4c0.5,0.6,0.8,1.5,0.9,2.5c0,0.9-0.3,1.8-0.8,2.5c-0.5,0.7-1.2,1.3-2.2,1.8
			c-0.9,0.4-2,0.6-3.2,0.6C34.7,33.8,33.5,33.5,32.5,33.1z"/>
		<path class="st1" d="M87.8,26.1H74.2c0.1,1.7,0.7,3,1.7,3.9c1,0.9,2.3,1.4,3.8,1.4c1.2,0,2.2-0.3,3.1-0.9c0.8-0.6,1.4-1.3,1.7-2.3
			h3c-0.5,1.6-1.4,3-2.7,4c-1.4,1-3.1,1.5-5.1,1.5c-1.6,0-3.1-0.4-4.3-1.1c-1.3-0.7-2.3-1.7-3-3.1s-1.1-2.9-1.1-4.6
			c0-1.8,0.4-3.3,1.1-4.6c0.7-1.3,1.7-2.3,3-3.1c1.3-0.7,2.7-1.1,4.4-1.1c1.6,0,3,0.4,4.3,1.1c1.2,0.7,2.2,1.7,2.9,2.9
			c0.7,1.2,1,2.6,1,4.2C87.9,24.9,87.8,25.5,87.8,26.1z M84.2,21c-0.5-0.8-1.1-1.4-1.9-1.8c-0.8-0.4-1.7-0.6-2.7-0.6
			c-1.4,0-2.6,0.5-3.6,1.4c-1,0.9-1.6,2.2-1.7,3.8h10.7C84.9,22.7,84.7,21.8,84.2,21z"/>
		<path class="st1" d="M94.9,17c0.9-0.5,2-0.8,3.4-0.8v2.9h-0.7c-3.2,0-4.7,1.7-4.7,5.1v9.2h-2.8v-17h2.8v2.8
			C93.2,18.3,93.9,17.6,94.9,17z"/>
		<polygon class="st1" points="52.1,19.4 52.1,33.5 49.3,33.5 49.3,17.8 49.9,18.1 50.4,18.4 51,18.8 51.8,19.2 		"/>
		<g>
			<polygon class="st2" points="52.9,12.9 52.9,17.3 52.1,16.9 51.5,16.5 51,16.2 49.1,15.1 			"/>
		</g>
		<path class="st1" d="M47,10.6v22.9h-2.8V10.6H47z"/>
		<path class="st1" d="M55.1,20.4c0.7-1.3,1.7-2.3,2.9-3.1c1.2-0.7,2.7-1.1,4.3-1.1c2.1,0,3.8,0.5,5.2,1.5c1.4,1,2.2,2.4,2.7,4.2h-3
			c-0.3-1-0.9-1.8-1.7-2.4c-0.8-0.6-1.9-0.9-3.1-0.9c-1.6,0-2.9,0.6-3.9,1.7c-1,1.1-1.5,2.7-1.5,4.7c0,2,0.5,3.6,1.5,4.7
			c1,1.1,2.3,1.7,3.9,1.7c1.2,0,2.3-0.3,3.1-0.9c0.8-0.6,1.4-1.4,1.7-2.5h3c-0.5,1.7-1.4,3.1-2.7,4.2c-1.4,1-3.1,1.6-5.1,1.6
			c-1.6,0-3-0.4-4.3-1.1c-1.2-0.7-2.2-1.7-2.9-3.1c-0.7-1.3-1.1-2.9-1.1-4.6C54.1,23.2,54.4,21.7,55.1,20.4z"/>
	</g>
</g>
</svg>
