<?xml version="1.0" encoding="utf-8"?>
<!-- Generator: Adobe Illustrator 27.0.0, SVG Export Plug-In . SVG Version: 6.00 Build 0)  -->
<svg version="1.1" id="Layer_1" xmlns="http://www.w3.org/2000/svg" xmlns:xlink="http://www.w3.org/1999/xlink" x="0px" y="0px"
	 viewBox="0 0 216 32.8" style="enable-background:new 0 0 216 32.8;" xml:space="preserve">
<style type="text/css">
	.st0{fill:#FFFFFF;}
	.st1{fill:#FFD966;}
	.st2{fill:#3A97DE;}
</style>
<g>
	<polygon class="st1" points="11.7,7.6 8.2,9.6 11.7,11.6 15.3,13.7 15.3,9.6 15.3,5.5 	"/>
	<polygon class="st1" points="7.6,10.3 4.1,12.3 0.5,14.4 4.1,16.4 7.6,18.5 11.1,16.4 14.7,14.4 11.1,12.3 	"/>
	<polygon class="st2" points="3.4,30.3 7,28.2 3.4,26.2 -0.1,24.2 -0.1,28.2 -0.1,32.3 	"/>
	<polygon class="st2" points="7.6,27.5 11.1,25.5 14.6,23.5 11.1,21.4 7.6,19.4 4,21.4 0.5,23.5 4,25.5 	"/>
	<g>
		<path class="st1" d="M17.2,23.1c-0.5-0.2-1-0.6-1.3-1c-0.3-0.4-0.5-0.9-0.5-1.5h1.5c0,0.4,0.3,0.8,0.6,1.1
			c0.4,0.3,0.9,0.4,1.5,0.4c0.6,0,1-0.1,1.3-0.4c0.3-0.3,0.5-0.6,0.5-1c0-0.4-0.2-0.7-0.5-0.9c-0.4-0.2-0.9-0.4-1.6-0.6
			c-0.7-0.2-1.2-0.4-1.6-0.5c-0.4-0.2-0.8-0.4-1.1-0.8c-0.3-0.4-0.5-0.8-0.5-1.4c0-0.5,0.1-0.9,0.4-1.3c0.3-0.4,0.7-0.7,1.2-0.9
			c0.5-0.2,1.1-0.3,1.7-0.3c1,0,1.8,0.3,2.4,0.8c0.6,0.5,0.9,1.2,1,2.1h-1.5c0-0.5-0.2-0.8-0.6-1.1c-0.3-0.3-0.8-0.4-1.4-0.4
			c-0.5,0-1,0.1-1.3,0.3C17.2,16,17,16.3,17,16.6c0,0.3,0.1,0.5,0.3,0.7c0.2,0.2,0.4,0.3,0.7,0.5c0.3,0.1,0.7,0.2,1.2,0.4
			c0.6,0.2,1.2,0.3,1.6,0.5c0.4,0.2,0.8,0.4,1,0.8c0.3,0.3,0.4,0.8,0.5,1.3c0,0.5-0.1,0.9-0.4,1.3c-0.3,0.4-0.7,0.7-1.2,0.9
			c-0.5,0.2-1.1,0.3-1.7,0.3C18.3,23.4,17.7,23.3,17.2,23.1z"/>
		<path class="st1" d="M46.5,19.3h-7.2c0.1,0.9,0.4,1.6,0.9,2.1c0.6,0.5,1.2,0.7,2,0.7c0.6,0,1.2-0.2,1.6-0.5
			c0.4-0.3,0.7-0.7,0.9-1.2h1.6c-0.2,0.9-0.7,1.6-1.4,2.1c-0.7,0.5-1.6,0.8-2.7,0.8c-0.9,0-1.6-0.2-2.3-0.6
			c-0.7-0.4-1.2-0.9-1.6-1.6s-0.6-1.5-0.6-2.5c0-0.9,0.2-1.7,0.6-2.4c0.4-0.7,0.9-1.2,1.6-1.6c0.7-0.4,1.4-0.6,2.3-0.6
			c0.9,0,1.6,0.2,2.3,0.6c0.7,0.4,1.2,0.9,1.5,1.5c0.4,0.7,0.5,1.4,0.5,2.2C46.5,18.7,46.5,19,46.5,19.3z M44.6,16.6
			c-0.3-0.4-0.6-0.7-1-0.9c-0.4-0.2-0.9-0.3-1.4-0.3c-0.8,0-1.4,0.2-1.9,0.7c-0.5,0.5-0.8,1.1-0.9,2H45C45,17.5,44.8,17.1,44.6,16.6
			z"/>
		<path class="st1" d="M50.2,14.5c0.5-0.3,1.1-0.4,1.8-0.4v1.5h-0.4c-1.7,0-2.5,0.9-2.5,2.7v4.9h-1.5v-9h1.5v1.5
			C49.4,15.2,49.7,14.8,50.2,14.5z"/>
		<polygon class="st1" points="27.6,15.8 27.6,23.3 26.1,23.3 26.1,14.9 26.4,15.1 26.7,15.3 27,15.5 27.4,15.7 		"/>
		<g>
			<polygon class="st2" points="28,12.3 28,14.7 27.6,14.4 27.3,14.3 27,14.1 25.9,13.5 			"/>
		</g>
		<path class="st1" d="M24.8,11.1v12.1h-1.5V11.1H24.8z"/>
		<path class="st1" d="M29.2,16.3c0.4-0.7,0.9-1.2,1.6-1.6c0.7-0.4,1.4-0.6,2.3-0.6c1.1,0,2,0.3,2.7,0.8c0.7,0.5,1.2,1.3,1.4,2.2
			h-1.6c-0.2-0.5-0.5-1-0.9-1.3c-0.4-0.3-1-0.5-1.7-0.5c-0.9,0-1.5,0.3-2.1,0.9c-0.5,0.6-0.8,1.4-0.8,2.5c0,1.1,0.3,1.9,0.8,2.5
			c0.5,0.6,1.2,0.9,2.1,0.9c0.7,0,1.2-0.2,1.6-0.5c0.4-0.3,0.7-0.7,0.9-1.3h1.6c-0.2,0.9-0.7,1.7-1.4,2.2c-0.7,0.6-1.6,0.8-2.7,0.8
			c-0.9,0-1.6-0.2-2.3-0.6c-0.7-0.4-1.2-0.9-1.6-1.6c-0.4-0.7-0.6-1.5-0.6-2.5C28.6,17.8,28.8,17,29.2,16.3z"/>
	</g>
</g>
</svg>
